# xmcd
#
# Track frame offsets: 
#        150
#        15447
#        34293
#        50832
#        63096
#        78169
#        97313
#        115359
#        133818
#        150287
#        170674
#        184223
#        199750
#        215948
#        232109
#        258225
#        278119
#        295035
#        319660
#        334821
#
# Disc length: 4710 seconds
#
# Revision: 0
# Processed by: cddbd v1.5.2PL0 Copyright (c) Steve Scherf et al.
# Submitted via: ExactAudioCopy v0.99pb3
#
DISCID=2d126414
DTITLE=Phil Lynott - Yellow Pearl A Collection
DYEAR=2010
DGENRE=Blues
TTITLE0=Yellow Pearl (Second 7'' Remix)
TTITLE1=Dear Miss Lonely Hearts
TTITLE2=King's Call
TTITLE3=A Child's Lullaby
TTITLE4=Tattoo (Giving It All Up For Love)
TTITLE5=Solo In Soho
TTITLE6=Girls
TTITLE7=Ode To A Black Man
TTITLE8=Together
TTITLE9=Fatalistic Attitude
TTITLE10=The Man's A Fool
TTITLE11=Old Town
TTITLE12=Cathleen
TTITLE13=Little Bit Of Water
TTITLE14=Ode To Liberty (The Protest Song)
TTITLE15=Somebody Else's Dream
TTITLE16=Beat Of The Drum
TTITLE17=Nineteen
TTITLE18=Parisienne Walkways
TTITLE19=Yellow Pearl
EXTD=
EXTT0=
EXTT1=
EXTT2=
EXTT3=
EXTT4=
EXTT5=
EXTT6=
EXTT7=
EXTT8=
EXTT9=
EXTT10=
EXTT11=
EXTT12=
EXTT13=
EXTT14=
EXTT15=
EXTT16=
EXTT17=
EXTT18=
EXTT19=
PLAYORDER=
